<?xml version="1.0" encoding="UTF-8"?>
<svg xmlns="http://www.w3.org/2000/svg" id="Outline" viewBox="0 0 512 512" width="512" height="512"><path d="M152,16A112.127,112.127,0,0,0,40,128v8c0,17.789-17.814,24.163-18.53,24.411A8,8,0,0,0,24,176H65.062a87.431,87.431,0,0,0,22.356,44.026A104.015,104.015,0,0,0,32,312V488a8,8,0,0,0,8,8H488a8,8,0,0,0,8-8V312a103.636,103.636,0,0,0-8-40.037V173.132a31.915,31.915,0,0,0-.114-42.4,123,123,0,0,0-33.049-79.4C433.478,28.548,405.479,16,376,16s-57.478,12.548-78.837,35.333a123,123,0,0,0-33.049,79.4c-.039.044-.076.088-.114.132V128A112.127,112.127,0,0,0,152,16ZM298.246,480l12-48H441.754l12,48ZM312,416V400H440v16Zm168,64h-9.754L456,423.017V400a8,8,0,0,0,8-8V348.208l16-11Zm0-328a16.019,16.019,0,0,1-16,16c-.123,0-.244-.013-.366-.015.238-2.631.366-5.293.366-7.985V136A16.019,16.019,0,0,1,480,152ZM376,232a72.081,72.081,0,0,1-72-72V133.976a171.349,171.349,0,0,0,29.885-12.983c18.735-10.409,33.015-23.421,42.09-38.214,19.29,31.679,57.2,46.462,72.025,51.212V160A72.081,72.081,0,0,1,376,232Zm31.833,10.04c-2.005,13.3-9.138,30.706-31.833,37.641-22.7-6.936-29.83-24.349-31.834-37.642a87.988,87.988,0,0,0,63.667,0Zm-96.218-22.12A103.625,103.625,0,0,0,280,245.553V182.987A31.94,31.94,0,0,0,288,184a32.483,32.483,0,0,0,3.281-.167A87.994,87.994,0,0,0,311.615,219.92ZM460.72,183.827a31.827,31.827,0,0,0,11.28-.84v62.572a103.676,103.676,0,0,0-31.611-25.645A87.977,87.977,0,0,0,460.72,183.827ZM308.837,62.275C327.139,42.752,350.991,32,376,32s48.861,10.752,67.163,30.275a106.629,106.629,0,0,1,27.79,58.5A31.937,31.937,0,0,0,464,120h-6.934c-7.451-2.1-60.043-18.229-73.476-58.53a8,8,0,0,0-15.18,0c-13.436,40.311-66.051,56.44-73.475,58.53H288a31.937,31.937,0,0,0-6.953.77A106.629,106.629,0,0,1,308.837,62.275ZM288,136v24c0,2.691.128,5.352.366,7.982-.123,0-.243.018-.366.018a16,16,0,0,1,0-32ZM272,312a88,88,0,0,1,52.63-80.594q1.421,1.024,2.883,1.993a79.551,79.551,0,0,0,2.779,19.942c4.208,15.15,15.2,34.8,43.646,42.389a8.009,8.009,0,0,0,4.124,0c28.45-7.586,39.438-27.239,43.646-42.389a79.551,79.551,0,0,0,2.779-19.942q1.465-.97,2.889-2A88.021,88.021,0,0,1,480,312v5.792l-28.532,19.616A8,8,0,0,0,448,344v40H304V344a8,8,0,0,0-3.468-6.592L272,317.792Zm0,25.208,16,11V392a8,8,0,0,0,8,8v23.017L281.754,480H272ZM256,152a16.019,16.019,0,0,1-16,16c-.123,0-.244-.013-.366-.015.238-2.631.366-5.293.366-7.985V136A16.019,16.019,0,0,1,256,152ZM48.071,160A38.6,38.6,0,0,0,56,136v-8a96,96,0,0,1,191.74-7.048A31.917,31.917,0,0,0,240,120h-6.951c-10.252-2.727-17.561-7.535-21.715-14.313A22.153,22.153,0,0,1,208,95.9a8,8,0,0,0-16,.1c0,63.169-118.8,64-120,64Zm33.256,15.7c12.117-.647,34.345-2.669,56.839-9,38.635-10.866,56.837-28.426,64.65-45.836,4.711,5.026,11.477,9.782,21.184,13.111V160a72.081,72.081,0,0,1-42.184,65.51l-.139-.087-.131.21A71.563,71.563,0,0,1,152,232a72.5,72.5,0,0,1-70.673-56.3Zm87.218,70.736L152,272.906l-16.541-26.467a88.273,88.273,0,0,0,33.086-.006ZM64,480H48V368H64Zm80,0H80V448h64Zm80,0H160V448h64Zm32,0H240V368h16Zm0-128H240V328a8,8,0,0,0-16,0V432H80V328a8,8,0,0,0-16,0v24H48V312a88,88,0,0,1,52.517-80.543,88.428,88.428,0,0,0,10.869,6.654l33.83,54.129a8,8,0,0,0,13.568,0l33.89-54.223a88.114,88.114,0,0,0,10.7-6.616A88.021,88.021,0,0,1,256,312Zm8-80.043v0a104.2,104.2,0,0,0-47.61-52.046,87.977,87.977,0,0,0,20.331-36.087A31.855,31.855,0,0,0,264,173.132Z"/><circle cx="184" cy="160" r="8"/><circle cx="344" cy="160" r="8"/><circle cx="408" cy="160" r="8"/><path d="M394.343,186.343c-.057.057-6.2,5.657-18.343,5.657s-18.286-5.6-18.343-5.657a8,8,0,0,0-11.314,11.314C347.4,198.715,357.228,208,376,208h0c18.771,0,28.6-9.285,29.657-10.343a8,8,0,0,0-11.314-11.314Z"/><path d="M152,208h0c18.772,0,28.6-9.285,29.657-10.343a8,8,0,0,0-11.314-11.314c-.057.057-6.2,5.657-18.343,5.657s-18.286-5.6-18.343-5.657a8,8,0,1,0-11.314,11.314C123.4,198.715,133.229,208,152,208Z"/></svg>
