<?xml version="1.0" encoding="iso-8859-1"?>
<!-- Generator: Adobe Illustrator 19.0.0, SVG Export Plug-In . SVG Version: 6.00 Build 0)  -->
<svg version="1.1" id="Capa_1" xmlns="http://www.w3.org/2000/svg" xmlns:xlink="http://www.w3.org/1999/xlink" x="0px" y="0px"
	 viewBox="0 0 480 480" style="enable-background:new 0 0 480 480;" xml:space="preserve">
<g>
	<g>
		<g>
			<path d="M476.96,301.897l-38.24-30.64l-43.36-115.12c-3.372-9.538-12.363-15.938-22.48-16H352v-8c0-13.255-10.745-24-24-24
				s-24,10.745-24,24v8H8c-4.418,0-8,3.582-8,8v224c0,4.418,3.582,8,8,8h56.72c4.574,26.112,29.451,43.572,55.563,38.997
				c19.915-3.489,35.509-19.082,38.997-38.997h177.44c4.574,26.112,29.451,43.572,55.563,38.997
				c19.915-3.489,35.509-19.082,38.997-38.997H472c4.418,0,8-3.582,8-8v-64C479.989,305.703,478.87,303.406,476.96,301.897z
				 M390.48,188.137l30,80h-79.52c-2.739,0-4.96-2.221-4.96-4.96v-70.08c0-2.739,2.221-4.96,4.96-4.96H390.48z M320,132.137
				c0-4.418,3.582-8,8-8s8,3.582,8,8v8h-16V132.137z M112,404.137c-17.673,0-32-14.327-32-32c0-17.673,14.327-32,32-32
				s32,14.327,32,32C144,389.81,129.673,404.137,112,404.137z M384,404.137c-17.673,0-32-14.327-32-32c0-17.673,14.327-32,32-32
				c17.673,0,32,14.327,32,32C416,389.81,401.673,404.137,384,404.137z M464,332.137h-24v16h24v16h-32.72
				c-4.574-26.112-29.451-43.572-55.563-38.997c-19.915,3.489-35.509,19.082-38.997,38.997H159.28
				c-4.574-26.112-29.451-43.572-55.563-38.997c-19.915,3.489-35.509,19.082-38.997,38.997H16v-16h40v-16H16v-48h288v-16H16v-112
				h356.88c3.348-0.011,6.348,2.064,7.52,5.2l4.08,10.8h-43.52c-11.558,0.044-20.916,9.402-20.96,20.96v70.08
				c0.044,11.558,9.402,20.916,20.96,20.96h88l35.04,27.84V332.137z"/>
			<rect x="168" y="332.137" width="160" height="16"/>
			<rect x="104" y="364.137" width="16" height="16"/>
			<rect x="376" y="364.137" width="16" height="16"/>
			<polygon points="115.2,181.737 96,196.137 96,172.137 80,172.137 80,196.137 60.8,181.737 51.2,194.537 74.64,212.137 
				51.2,229.737 60.8,242.537 80,228.137 80,252.137 96,252.137 96,228.137 115.2,242.537 124.8,229.737 101.36,212.137 
				124.8,194.537 			"/>
			<rect x="320" y="60.137" width="16" height="32"/>
			<rect x="267.038" y="80.109" transform="matrix(0.7071 0.7071 -0.7071 0.7071 145.4832 -175.01)" width="33.92" height="16"/>
			<rect x="363.983" y="71.163" transform="matrix(0.7071 0.7071 -0.7071 0.7071 171.2641 -237.2213)" width="16" height="33.92"/>
			<path d="M304,191.337c-0.044-10.586-8.614-19.156-19.2-19.2h-41.6c-10.586,0.044-19.156,8.614-19.2,19.2v41.6
				c0.044,10.586,8.614,19.156,19.2,19.2h41.6c10.586-0.044,19.156-8.614,19.2-19.2V191.337z M288,191.337l0,41.6
				c0,1.767-1.433,3.2-3.2,3.2h0h-41.6c-1.767,0-3.2-1.433-3.2-3.2v-41.6c0-1.767,1.433-3.2,3.2-3.2h41.6
				C286.567,188.137,288,189.57,288,191.337C288,191.337,288,191.337,288,191.337z"/>
			<rect y="76.137" width="120" height="16"/>
			<rect x="72" y="108.137" width="72" height="16"/>
			<rect x="24" y="108.137" width="24" height="16"/>
		</g>
	</g>
</g>
<g>
</g>
<g>
</g>
<g>
</g>
<g>
</g>
<g>
</g>
<g>
</g>
<g>
</g>
<g>
</g>
<g>
</g>
<g>
</g>
<g>
</g>
<g>
</g>
<g>
</g>
<g>
</g>
<g>
</g>
</svg>
