<svg id="Capa_1" enable-background="new 0 0 512 512" height="512" viewBox="0 0 512 512" width="512" xmlns="http://www.w3.org/2000/svg"><g><path d="m199.231 281.96v72.207c0 4.142 3.357 7.5 7.5 7.5s7.5-3.358 7.5-7.5v-80.867l22.3-12.875c3.587-2.071 4.816-6.658 2.745-10.245-2.07-3.588-6.66-4.817-10.245-2.745l-14.8 8.545v-61.04c0-4.266-2.547-8.076-6.487-9.708-3.942-1.631-8.435-.738-11.446 2.276l-71.518 71.527c-1.458 1.471-3.557 2.326-5.639 2.326-4.764 0-6.772-3.572-7.274-4.667s-1.899-4.949 1.208-8.56l80.907-93.978c6.187-7.179 15.167-11.296 24.639-11.296h20.23c7.995 0 14.5-6.505 14.5-14.5v-13.36h24v13.36c0 3.947 1.589 7.526 4.156 10.143l-4.817 2.782c-3.587 2.071-4.815 6.659-2.744 10.246 2.093 3.625 6.713 4.788 10.246 2.744l19.765-11.415h8.134c9.466 0 18.442 4.117 24.627 11.293l28.359 32.941c1.483 1.723 3.579 2.607 5.687 2.607 1.733 0 3.475-.597 4.891-1.816 3.139-2.703 3.493-7.438.79-10.577l-28.361-32.944c-5.878-6.82-13.485-11.733-21.888-14.347l37.57-21.697c3.17 3.025 7.063 5.228 11.414 6.394 13.749 3.684 28.725-4.817 32.456-18.739 3.782-14.114-4.624-28.673-18.738-32.456-14.117-3.782-28.675 4.624-32.455 18.739-1.165 4.346-1.205 8.815-.173 13.07l-56.331 32.532h-7.585v-14.688c13.079-4.52 22.502-16.949 22.502-31.545v-32.127c0-27.294-22.206-49.5-49.501-49.5-21.873 0-40.466 14.267-46.993 33.98h-66.49c-1.208-4.117-3.431-7.998-6.673-11.24-10.334-10.333-27.144-10.331-37.478 0-10.332 10.333-10.332 27.144 0 37.477 10.333 10.333 27.144 10.334 37.478 0 3.241-3.241 5.464-7.12 6.672-11.237h63.998c-.002.174-.013.346-.013.52v32.127c0 14.595 9.421 27.023 22.498 31.544v14.689h-19.73c-13.841 0-26.963 6.016-36.004 16.507l-80.91 93.981c-5.938 6.898-7.27 16.324-3.474 24.599 3.795 8.274 11.807 13.414 20.908 13.414 6.016 0 12.037-2.474 16.264-6.737l63.826-63.835v58.852l-88.766 51.248c-3.104-2.961-6.969-5.208-11.396-6.394-13.976-3.745-28.72 4.801-32.455 18.739-3.721 13.885 4.75 28.708 18.737 32.456 13.762 3.688 28.632-4.468 32.456-18.739 1.187-4.429 1.172-8.902.159-13.072zm171.698-195.82c1.661-6.202 8.084-9.739 14.084-8.131 6.126 1.641 9.773 7.959 8.133 14.084-1.616 6.031-8.067 9.744-14.085 8.131-6.125-1.641-9.773-7.959-8.132-14.084zm-232.978-44.651c-.003 2.941-1.123 5.882-3.363 8.121-4.482 4.484-11.78 4.482-16.263 0-4.484-4.484-4.484-11.78 0-16.264 4.483-4.483 11.779-4.483 16.263 0 2.24 2.24 3.361 5.181 3.363 8.123v.011c-.001.003 0 .006 0 .009zm92.902 40.138v-32.127c0-.174.011-.346.013-.52h12.915c4.143 0 7.5-3.358 7.5-7.5s-3.357-7.5-7.5-7.5h-9.225c5.69-11.247 17.354-18.98 30.797-18.98 19.023 0 34.5 15.477 34.5 34.5v32.127c0 10.131-8.242 18.373-18.373 18.373h-32.255c-10.131 0-18.372-8.242-18.372-18.373zm-127.535 256.44c-1.642 6.125-7.966 9.771-14.085 8.131-6.125-1.641-9.772-7.959-8.132-14.084 1.621-6.051 8.051-9.747 14.084-8.131 6.127 1.641 9.774 7.959 8.133 14.084zm335.197-30.327c-10.334-10.332-27.144-10.333-37.478 0-3.242 3.242-5.465 7.122-6.673 11.24h-62.884v-113.183l63.816 63.825c4.343 4.345 10.122 6.738 16.273 6.738 9.104 0 17.115-5.141 20.908-13.417 3.793-8.275 2.457-17.701-3.484-24.596l-29.697-34.494c-2.704-3.14-7.439-3.492-10.577-.791-3.139 2.702-3.493 7.438-.79 10.577l29.699 34.498c3.111 3.61 1.716 7.462 1.214 8.557s-2.509 4.667-7.272 4.667c-2.144 0-4.155-.832-5.666-2.343l-71.501-71.511c-3.013-3.011-7.499-3.905-11.439-2.275-3.938 1.632-6.483 5.443-6.483 9.709v124.04h-14.021c-4.143 0-7.5 3.358-7.5 7.5s3.357 7.5 7.5 7.5h14.021v137.4c0 7.871 5.313 14.797 12.935 16.846l14.898 3.979c1.213.362 1.797 1.121 1.797 2.354 0 1.345-1.09 2.44-2.43 2.44h-39.981c-1.26 0-2.302-.947-2.426-2.201l-16.781-171.384c-.93-9.723-9.409-17.345-19.143-17.345-9.943 0-18.174 7.462-19.145 17.359l-16.779 171.367c-.123 1.257-1.166 2.204-2.426 2.204h-39.97c-1.538-.059-2.44-.901-2.44-2.44 0-1.1.748-2.069 1.806-2.354l14.917-3.984c7.605-2.051 12.918-8.976 12.918-16.842v-82.212c0-4.142-3.357-7.5-7.5-7.5s-7.5 3.358-7.5 7.5v82.212c0 1.1-.749 2.069-1.806 2.354l-14.913 3.983c-7.608 2.046-12.922 8.973-12.922 16.843 0 9.466 7.938 17.492 17.44 17.44h39.97c9.013 0 16.474-6.766 17.354-15.739l16.779-171.368c.214-2.179 2.027-3.823 4.217-3.823 2.139 0 4.012 1.683 4.216 3.821l16.78 171.372c.882 8.971 8.343 15.737 17.354 15.737h39.98c9.61 0 17.43-7.824 17.43-17.44 0-7.762-5.413-14.865-12.925-16.846l-14.888-3.977c-1.07-.288-1.817-1.257-1.817-2.357v-137.4h62.885c1.208 4.116 3.431 7.996 6.672 11.237 10.333 10.334 27.145 10.333 37.478 0 10.332-10.333 10.332-27.144 0-37.477zm-10.608 26.87c-4.482 4.483-11.78 4.484-16.263 0-4.484-4.484-4.484-11.78 0-16.264 4.484-4.483 11.779-4.483 16.263 0 4.485 4.485 4.485 11.78 0 16.264z"/></g></svg>