<svg id="_x31_" enable-background="new 0 0 24 24" height="512" viewBox="0 0 24 24" width="512" xmlns="http://www.w3.org/2000/svg"><g><path d="m12 10c-.006 0-.013 0-.019 0-.15-.006-.291-.08-.381-.2l-1.35-1.8h-2.75c-.827 0-1.5-.673-1.5-1.5v-5c0-.827.673-1.5 1.5-1.5h9c.827 0 1.5.673 1.5 1.5v5c0 .827-.673 1.5-1.5 1.5h-2.523l-1.601 1.829c-.095.109-.232.171-.376.171zm-4.5-9c-.276 0-.5.224-.5.5v5c0 .276.224.5.5.5h3c.157 0 .306.074.4.2l1.13 1.506 1.344-1.536c.095-.108.232-.17.376-.17h2.75c.276 0 .5-.224.5-.5v-5c0-.276-.224-.5-.5-.5z"/></g><g><path d="m20 11c-.006 0-.013 0-.02 0-.151-.006-.291-.08-.381-.201l-.79-1.06c-.165-.222-.119-.535.102-.7.221-.166.534-.12.7.102l.42.564 1.342-1.534c.096-.109.233-.171.377-.171h.75c.276 0 .5-.224.5-.5v-5c0-.276-.224-.5-.5-.5h-2c-.276 0-.5-.224-.5-.5s.224-.5.5-.5h2c.827 0 1.5.673 1.5 1.5v5c0 .827-.673 1.5-1.5 1.5h-.523l-1.601 1.829c-.095.109-.232.171-.376.171z"/></g><g><path d="m4 11c-.144 0-.281-.062-.376-.171l-1.601-1.829h-.523c-.827 0-1.5-.673-1.5-1.5v-5c0-.827.673-1.5 1.5-1.5h2c.276 0 .5.224.5.5s-.224.5-.5.5h-2c-.276 0-.5.224-.5.5v5c0 .276.224.5.5.5h.75c.144 0 .281.062.376.171l1.342 1.534.42-.564c.165-.221.479-.267.7-.102s.267.478.102.7l-.79 1.06c-.089.121-.23.195-.38.201-.007 0-.014 0-.02 0z"/></g><g><path d="m20 17c-1.103 0-2-.897-2-2s.897-2 2-2 2 .897 2 2-.897 2-2 2zm0-3c-.551 0-1 .449-1 1s.449 1 1 1 1-.449 1-1-.449-1-1-1z"/></g><g><path d="m23.5 22c-.276 0-.5-.224-.5-.5v-1c0-.827-.673-1.5-1.5-1.5h-3c-.276 0-.5-.224-.5-.5s.224-.5.5-.5h3c1.378 0 2.5 1.122 2.5 2.5v1c0 .276-.224.5-.5.5z"/></g><g><path d="m4 17c-1.103 0-2-.897-2-2s.897-2 2-2 2 .897 2 2-.897 2-2 2zm0-3c-.551 0-1 .449-1 1s.449 1 1 1 1-.449 1-1-.449-1-1-1z"/></g><g><path d="m.5 22c-.276 0-.5-.224-.5-.5v-1c0-1.378 1.122-2.5 2.5-2.5h3c.276 0 .5.224.5.5s-.224.5-.5.5h-3c-.827 0-1.5.673-1.5 1.5v1c0 .276-.224.5-.5.5z"/></g><g><path d="m12 17.5c-1.654 0-3-1.346-3-3s1.346-3 3-3 3 1.346 3 3-1.346 3-3 3zm0-5c-1.103 0-2 .897-2 2s.897 2 2 2 2-.897 2-2-.897-2-2-2z"/></g><g><path d="m17 24c-.276 0-.5-.224-.5-.5v-2c0-.827-.673-1.5-1.5-1.5h-6c-.827 0-1.5.673-1.5 1.5v2c0 .276-.224.5-.5.5s-.5-.224-.5-.5v-2c0-1.378 1.122-2.5 2.5-2.5h6c1.378 0 2.5 1.122 2.5 2.5v2c0 .276-.224.5-.5.5z"/></g></svg>