<svg id="Capa_1" enable-background="new 0 0 512 512" height="512" viewBox="0 0 512 512" width="512" xmlns="http://www.w3.org/2000/svg"><g><path d="m114.018 191.264c1.246 51.252 42.224 88.736 89.988 88.736h50v10c0 3.688 2.03 7.076 5.281 8.816 3.243 1.737 7.19 1.554 10.266-.496l60-40c2.782-1.854 4.453-4.977 4.453-8.32s-1.671-6.466-4.453-8.32l-60-40c-3.067-2.047-7.014-2.239-10.266-.496-3.251 1.74-5.281 5.129-5.281 8.816v10h-90c-15.07 0-28.97-10.994-29.997-29.361-.004-.211-.003-.422-.003-.639 0-5.522-4.477-10-10-10s-10 4.478-10 10c0 .429.001.847.012 1.264zm49.988 48.736h100c5.522 0 10-4.478 10-10v-1.314l31.972 21.314-31.973 21.314v-1.314c0-5.522-4.478-10-10-10h-60c-19.38 0-37.038-8.031-49.769-20.938 3.158.616 6.424.938 9.77.938z"/><path d="m188.724 81.184c-3.25-1.742-7.196-1.55-10.266.496l-60 40c-2.782 1.854-4.453 4.977-4.453 8.32s1.671 6.466 4.453 8.32l60 40c3.068 2.047 7.015 2.238 10.266.496 3.251-1.74 5.281-5.129 5.281-8.816v-10h90c16.307 0 29.473 12.757 29.984 29.045.008.316.016.632.016.955 0 5.522 4.478 10 10 10s10-4.478 10-10c0-49.73-40.274-90-90-90h-50v-10c.001-3.687-2.029-7.076-5.281-8.816zm55.282 38.816c19.38 0 37.038 8.031 49.77 20.938-3.158-.615-6.424-.938-9.77-.938h-100c-5.523 0-10 4.478-10 10v1.314l-31.972-21.314 31.972-21.314v1.314c0 5.522 4.477 10 10 10z"/><circle cx="97.006" cy="63" r="10"/><path d="m425.372 217.228c-.052-.054-.104-.106-.155-.159-7.229-7.229-11.211-16.842-11.211-27.068 0-104.767-85.233-190-190-190-34.139 0-67.621 9.16-96.826 26.491-4.75 2.818-6.315 8.953-3.497 13.703 2.819 4.748 8.954 6.316 13.703 3.496 26.118-15.499 56.071-23.691 86.62-23.691 93.738 0 170 76.262 170 170 0 15.53 6.032 30.132 16.987 41.13 0 0 44.01 46.009 44.062 46.062 3.555 3.555 3.043 7.731 2.658 9.362-.385 1.632-1.797 5.599-6.476 7.159l-30.3 9.77c-2.692.868-4.891 2.835-6.051 5.415-1.161 2.579-1.175 5.529-.039 8.119 7.95 18.119 10.758 24.544 10.934 24.896 1.227 2.452 1.398 5.227.483 7.811-.914 2.582-2.791 4.629-5.283 5.761l-8.61 3.91c-2.987 1.356-5.118 4.092-5.704 7.319s.448 6.537 2.768 8.857l3.36 3.36c3.897 3.897 3.897 10.239 0 14.137l-5.86 5.86c-1.875 1.876-2.929 4.419-2.929 7.071 0 16.542-13.458 30-30 30h-40c-30.134 0-54.536 26.785-59.196 56h-139.507c7.183-70.696-16.284-115.242-39.015-158.396-20.788-39.462-42.282-80.27-42.282-143.603 0-30.548 8.192-60.501 23.691-86.621 2.818-4.749 1.252-10.884-3.497-13.702-4.751-2.82-10.885-1.253-13.703 3.497-17.331 29.206-26.491 62.688-26.491 96.826 0 68.278 22.667 111.31 44.587 152.925 23.478 44.573 45.654 86.674 35.514 157.661-.41 2.869.445 5.776 2.345 7.966 1.899 2.19 4.656 3.448 7.555 3.448h160c5.522 0 10-4.478 10-10 0-21.272 17.473-46 40-46h40c26.113 0 47.614-20.12 49.814-45.672l3.117-3.117c9.489-9.489 11.279-23.807 5.371-35.117 5.963-3.566 10.452-9.037 12.81-15.695 2.714-7.666 2.241-15.888-1.326-23.184l-6.182-14.095 19.857-6.403c9.936-3.312 17.304-11.374 19.71-21.568 2.396-10.151-.554-20.613-7.894-28.012z"/></g></svg>