<svg id="Capa_1" enable-background="new 0 0 512 512" height="512" viewBox="0 0 512 512" width="512" xmlns="http://www.w3.org/2000/svg"><g><g><path d="m117.205 260.146c2.498 0 4.998-.93 6.938-2.8 6.295-6.064 16.521-6.07 22.792-.009 3.971 3.837 10.301 3.729 14.14-.242 3.838-3.972 3.729-10.303-.242-14.141-13.925-13.455-36.609-13.461-50.568-.009-3.977 3.832-4.094 10.162-.262 14.14 1.963 2.037 4.581 3.061 7.202 3.061z"/><path d="m405.743 417.638c-2.245-.662-4.528-1.335-6.815-2.028v-17.198c15.856-11.89 26.136-30.839 26.136-52.144v-14.286c0-35.992-29.206-65.274-65.104-65.274s-65.104 29.206-65.104 65.104v14.456c0 21.305 10.279 40.253 26.135 52.144v17.198c-2.287.693-4.57 1.366-6.815 2.028-14.963 4.408-30.948 9.121-43.086 19.323v-45.481c0-.055 0-.109-.001-.163-.875-53.516-44.626-65.308-79.781-74.782-4.728-1.274-9.284-2.502-13.674-3.794v-18.081c30.089-15.371 50.739-46.68 50.739-82.723v-43.454c0-51.185-41.642-92.827-92.827-92.827s-92.827 41.643-92.827 92.827v22.251 21.203c0 36.043 20.65 67.353 50.739 82.723v18.082c-4.392 1.292-8.952 2.521-13.683 3.797-35.151 9.477-78.898 21.271-79.772 74.777-.003.054-.003.109-.003.163v110.521c0 5.522 4.477 10 10 10h80.644c5.523 0 10-4.478 10-10s-4.477-10-10-10h-14.916v-61.971c0-5.522-4.477-10-10-10s-10 4.478-10 10v61.971h-35.728v-100.436c.621-35.792 24.968-44.928 64.98-55.715 3.467-.935 6.99-1.886 10.493-2.878 5.448 16.947 21.348 29.248 40.071 29.248 18.724 0 34.625-12.302 40.072-29.25 3.5.991 7.021 1.942 10.485 2.875 40.016 10.785 64.366 19.921 64.987 55.72v100.436h-35.728v-61.971c0-5.522-4.477-10-10-10s-10 4.478-10 10v61.971h-14.916c-5.523 0-10 4.478-10 10s4.477 10 10 10h278.385c5.522 0 10-4.478 10-10v-16.412c0-.055 0-.108-.001-.163-.806-49.438-33.892-59.187-63.085-67.787zm-270.199-321.983c40.157 0 72.827 32.67 72.827 72.827v11.151c-16.656-1.934-29.242-4.954-38.884-17.587-3.228-4.231-9.206-5.191-13.598-2.186-27.195 18.617-64.122 21.936-93.171 20.858v-12.237c-.001-40.156 32.669-72.826 72.826-72.826zm-72.827 116.282v-11.205c29.603 1.006 66.772-2.316 96.952-19.649 13.884 13.576 30.769 16.711 48.702 18.677v12.178c0 30.032-18.276 55.872-44.288 66.995-.204.078-.405.161-.603.251-8.608 3.589-18.042 5.58-27.935 5.58-9.892 0-19.326-1.99-27.933-5.579-.199-.091-.402-.175-.608-.253-26.012-11.125-44.287-36.964-44.287-66.995zm72.827 130.283c-12.179 0-22.087-9.921-22.087-22.115v-18.005c7.082 1.735 14.478 2.662 22.087 2.662 7.61 0 15.006-.927 22.088-2.662v18.004c0 12.195-9.909 22.116-22.088 22.116zm224.415-55.513c22.066 0 40.468 15.991 44.342 37.031-13.664-6.612-28.893-10.154-44.342-10.154-15.46 0-30.698 3.547-44.369 10.168 3.812-21.037 22.25-37.045 44.369-37.045zm-45.082 60.449c26.843-17.962 63.318-17.962 90.164 0-.476 24.477-20.509 44.245-45.082 44.245s-44.606-19.768-45.082-44.245zm64.051 61.417v14.343c0 12.508-10.244 18.204-19.763 18.204-10.022 0-18.176-8.166-18.176-18.204v-14.343c6.005 1.834 12.373 2.828 18.97 2.828 6.597-.001 12.964-.995 18.969-2.828zm69.901 83.427h-177.741v-6.327c.593-34.667 19.751-40.31 48.738-48.851 1.127-.332 2.264-.667 3.408-1.007 5.299 14.736 19.403 25.304 35.931 25.304 17.901 0 32.318-10.247 37.593-25.281 1.118.332 2.23.66 3.332.985 28.986 8.54 48.144 14.187 48.738 48.848v6.329z"/><path d="m490.576 0h-213.926c-11.813 0-21.424 9.61-21.424 21.424v142.154c0 11.798 9.61 21.396 21.424 21.396h8.562l-11.177 49.714c-.915 4.069.793 8.279 4.283 10.562 1.666 1.09 3.571 1.631 5.473 1.631 2.084 0 4.164-.65 5.921-1.94l81.631-59.967h119.232c11.813 0 21.424-9.598 21.424-21.396v-142.154c.001-11.814-9.609-21.424-21.423-21.424zm1.424 163.578c0 .73-.679 1.396-1.424 1.396h-122.511c-2.13 0-4.204.68-5.92 1.94l-62.733 46.085 8.056-35.832c.666-2.964-.051-6.069-1.948-8.441-1.898-2.371-4.771-3.752-7.809-3.752h-21.061c-.745 0-1.424-.665-1.424-1.396v-142.154c0-.759.665-1.424 1.424-1.424h213.926c.759 0 1.424.665 1.424 1.424z"/><path d="m309.56 61.243h23.442c5.522 0 10-4.478 10-10s-4.478-10-10-10h-23.442c-5.522 0-10 4.478-10 10s4.477 10 10 10z"/><path d="m384.053 61.243h75.344c5.522 0 10-4.478 10-10s-4.478-10-10-10h-75.344c-5.522 0-10 4.478-10 10s4.477 10 10 10z"/><path d="m460.331 82.486h-149.836c-5.522 0-10 4.478-10 10s4.478 10 10 10h149.836c5.522 0 10-4.478 10-10s-4.477-10-10-10z"/><path d="m459.878 123.729h-23.471c-5.522 0-10 4.478-10 10s4.478 10 10 10h23.471c5.522 0 10-4.478 10-10s-4.478-10-10-10z"/><path d="m385.385 123.729h-75.372c-5.522 0-10 4.478-10 10s4.478 10 10 10h75.372c5.522 0 10-4.478 10-10s-4.478-10-10-10z"/><path d="m135.544 492c-5.523 0-10 4.478-10 10s4.477 10 10 10h.057c5.523 0 9.972-4.478 9.972-10s-4.506-10-10.029-10z"/></g></g></svg>