<svg height="512" viewBox="0 0 54 60" width="512" xmlns="http://www.w3.org/2000/svg"><g id="Page-1" fill="none" fill-rule="evenodd"><g id="028---Body-Nerves" fill="rgb(0,0,0)" fill-rule="nonzero"><path id="Shape" d="m52.556 34c-.0559856-1.8291457-.5648488-3.6158361-1.481-5.2-.593-1.185-.889-1.827-.625-2.356.967453-2.2680768.982228-4.8299152.041-7.109-1.194-2.884-3.758-5-7.619-6.287l-1.926-.638c-7.39-2.438-7.39-2.55-7.39-5.41-.0213849-1.41345223.2900004-2.81211685.909-4.083.3206469-.62515167.2906759-1.37253132-.079-1.97-.3612411-.59109957-1.0052641-.95028082-1.698-.947h-11.376c-.693447-.00398279-1.3383898.35528831-1.7.947-.3696587.59783785-.3996257 1.34549474-.079 1.971.62 1.27025006.9320932 2.66867401.911 4.082 0 2.86 0 2.972-7.39 5.413l-1.926.638c-3.861 1.287-6.425 3.4-7.619 6.287-.94122799 2.2790848-.926453 4.8409232.041 7.109.264.529-.032 1.171-.625 2.356-.9156749 1.583276-1.42452136 3.368877-1.481 5.197-.13944686 3.6341845-.46990312 7.258522-.99 10.858-.60060366 4.742393-.60060366 9.541607 0 14.284.07064202.4924379.49252097.8580663.99.858h5c.37763891-.0000108.72306249-.2127577.893-.55l.652-1.293c1.57231535-3.1149402 2.4120225-6.5479914 2.455-10.037v-.12c-.1577134-3.2204381.2677891-6.442874 1.256-9.512 1.4598309 3.5872505 1.7280192 7.5487247.765 11.3-.5525922 3.1255106-.0048407 6.3459357 1.55 9.113.3433878.675356 1.0373593 1.1002444 1.795 1.099h22.38c.7567821-.0000773 1.4493773-.4252194 1.792-1.1 1.5549139-2.7674026 2.1026628-5.988166 1.55-9.114-.9732859-3.7532815-.7066881-7.7206778.76-11.31.9924423 3.0724164 1.420676 6.2990757 1.264 9.524v.126c.0437021 3.4881946.8841021 6.9202556 2.457 10.034l.65 1.29c.1699375.3372423.5153611.5499892.893.55h5c.497479.0000663.919358-.3655621.99-.858.6006037-4.742393.6006037-9.541607 0-14.284-.5200969-3.599478-.8505531-7.2238155-.99-10.858zm-.877 24h-3.507l-.372-.737c-1.4345358-2.8370015-2.2020578-5.9642092-2.244-9.143v-.12c0-4.1 0-6.162-2.052-12.316-.1156271-.347824-.4122811-.6045157-.7731101-.6689644-.360829-.0644486-.7280021.0736751-.9568899.3599644-.174.22-4.275 5.482-2.2 14.841.4490849 2.6754622-.0360712 5.4239742-1.374 7.784h-.008l-22.381.007c-1.3443516-2.3599235-1.8345275-5.1109827-1.388-7.79 2.077-9.36-2.023-14.617-2.197-14.842-.1900804-.237411-.4778711-.375418-.782-.375-.0587045-.0001312-.1172927.0052254-.175.016-.3605505.0643141-.6570989.3205811-.773.668-2.052 6.154-2.052 8.216-2.052 12.316v.114c-.04176792 3.1797709-.80928701 6.3079926-2.244 9.146l-.372.74h-3.507c-.45055522-4.2764151-.41230847-8.5902459.114-12.858.53665447-3.6931293.87347823-7.4125448 1.009-11.142.0644129-1.5157744.50054955-2.9924576 1.27-4.3.663-1.326 1.349-2.7.625-4.144-.71364238-1.747751-.70753179-3.706735.017-5.45.963-2.325 3.119-4.059 6.4-5.154l1.92-.636c7.254-2.4 8.763-2.9 8.763-7.313.0209356-1.73247704-.3668892-3.44548388-1.132-5l4.693.003v4.994c0 5.19-3.123 6.423-10.187 8.719l-3.42 1.123c-2.67.893-4.4 2.219-5.15 3.938-.52613047 1.2321215-.56791407 2.6174085-.117 3.879 1.17 2.33.1 4.487-.644 5.982-.61647942 1.01775-.97424025 2.1710309-1.042 3.359-.09262349 3.2483235-.35967491 6.4893263-.8 9.709v.011l-.2 1.48c-.032.2-.042.32-.045.325-.24625714 2.082875-.37812173 4.177686-.395 6.275-.00443757.5519047.43909962 1.0030505.991 1.008h.009c.54917558.0000176.9956066-.442842 1-.992.01687983-2.0218227.14473887-4.0411943.383-6.049.007-.058.012-.1.013-.129v.013l.038-.244c0-.014 0-.028.006-.042l.019-.133c.042-.3.1-.735.163-1.256.45169786-3.3082221.72476057-6.6383855.818-9.976.088849-.90135.38563172-1.7697904.867-2.537.777-1.565 2.224-4.479.634-7.641-.20695198-.7418188-.15906391-1.5316199.136-2.243.513-1.179 1.841-2.135 3.946-2.839l3.408-1.119c4.126-1.341 7.543-2.458 9.569-4.707v16.086c0 1.748-1.1 2.946-3.274 3.575-.7126979-1.8891772-2.7188812-2.9537874-4.6828542-2.4850242s-3.2730838 2.3246714-3.0557403 4.3320803 1.8933422 3.5401172 3.9121337 3.5776638 3.7506236-1.431781 4.0424608-3.4297199c1.1074094-.260679 2.148688-.7482888 3.058-1.432v13.862c-.0078094 1.4971262-.9838379 2.8169691-2.413 3.263-.8727483-1.8124832-2.9557969-2.6948236-4.8648917-2.0606771-1.9090948.6341466-3.0502191 2.5874647-2.6650582 4.5619104.3851608 1.9744458 2.1767636 3.3556683 4.1842294 3.2258 2.0074659-.1298683 3.6061697-1.7304189 3.7337205-3.7380333 2.594-.974 4.025-2.809 4.025-5.252v-2.852c.6144233.4686095 1.2974542.8396387 2.025 1.1.1275508 2.0076144 1.7262546 3.608165 3.7337205 3.7380333 2.0074658.1298683 3.7990686-1.2513542 4.1842294-3.2258.3851609-1.9744457-.7559634-3.9277638-2.6650582-4.5619104-1.9090948-.6341465-3.9921434.2481939-4.8648917 2.0606771-1.4277627-.445583-2.4034544-1.7633531-2.413-3.259v-13.862c.909312.6837112 1.9505906 1.171321 3.058 1.432.2946489 1.984739 2.0180241 3.4415056 4.024118 3.4015812 2.006094-.0399243 3.6701437-1.5641058 3.8855919-3.5589965s-1.0848027-3.8392167-3.0361138-4.3065408-3.9459806.5878936-4.6575961 2.4639561c-2.174-.624-3.274-1.822-3.274-3.57v-9.086c2.026 2.249 5.443 3.366 9.569 4.707l3.4 1.117c2.109.706 3.437 1.662 3.95 2.842.2835402.6921856.3406011 1.4563819.163 2.183-1.616 3.223-.17 6.136.643 7.774.4658697.7449956.7517599 1.5882863.835 2.463.0926596 3.3336248.3653905 6.6598073.817 9.964.061.533.122.969.164 1.268l.019.133v.027l.037.166c0 .041.012.169.017.209.2393369 2.0084133.3681976 4.0284548.386 6.051.0043934.549158.4508244.9920176 1 .992h.009c.2653948-.0023753.5189595-.1101555.7048392-.2995989.1858796-.1894434.2888255-.445009.2861608-.7104011-.0157747-2.0865357-.1493205-4.1705174-.4-6.242-.0065164-.1207552-.0205436-.2409878-.042-.36l-.2-1.478c-.4396066-3.2234007-.7059893-6.4680621-.798-9.72-.0732714-1.2127773-.442719-2.3891043-1.076-3.426-.709-1.428-1.78-3.585-.588-5.963.4302639-1.2493838.380722-2.6141025-.139-3.829-.747-1.721-2.48-3.047-5.153-3.942l-3.416-1.121c-7.065-2.296-10.188-3.529-10.188-8.719v-4.991l4.68.007c-.7603921 1.55017899-1.1454307 3.25750302-1.124 4.984 0 4.418 1.509 4.917 8.763 7.313l1.92.636c3.286 1.1 5.442 2.829 6.405 5.154.7245318 1.743265.7306424 3.702249.017 5.45-.723 1.447-.038 2.818.625 4.144.7694504 1.3075424 1.2055871 2.7842256 1.27 4.3.135443 3.7291282.4722673 7.4482152 1.009 11.141.5264744 4.2690822.5647211 8.5842566.114 12.862zm-30.679-24c0 1.1045695-.8954305 2-2 2s-2-.8954305-2-2 .8954305-2 2-2 2 .8954305 2 2zm1 18c0 1.1045695-.8954305 2-2 2s-2-.8954305-2-2 .8954305-2 2-2 2 .8954305 2 2zm12-9c1.1045695 0 2 .8954305 2 2s-.8954305 2-2 2-2-.8954305-2-2 .8954305-2 2-2zm-1-16c0-1.1045695.8954305-2 2-2s2 .8954305 2 2-.8954305 2-2 2-2-.8954305-2-2z"/></g></g></svg>