<?xml version="1.0" encoding="UTF-8"?>
<svg xmlns="http://www.w3.org/2000/svg" viewBox="0 0 64 64" width="512" height="512"><g id="Ecology-Earth-World-Hand-Environment"><path d="M32,3A17,17,0,1,0,49,20,17.024,17.024,0,0,0,32,3Zm-.82,2.04a1.038,1.038,0,0,1,.12.03l4.01.66-.93,1.39-3.3.83a1.953,1.953,0,0,0-1.09.73L27.36,12.2l-2.52.8H21a1.225,1.225,0,0,0-.19.02c-1.12.22-1.81.91-1.81,1.8v1.64a2,2,0,0,0,.9,1.67L22,19.54v1.85l-4.35-2.18-.57-.74A15,15,0,0,1,31.18,5.04ZM35.6,29.75,34.83,31A1.981,1.981,0,0,0,34,32.62v.98l-1.21-.4a1.009,1.009,0,0,0-.07-.15L31,29.82v-2.2a1.982,1.982,0,0,0-1.11-1.79l-1.3-.65L27,23.59V21.58l3.85-2.35L33,21.41a2.031,2.031,0,0,0,1.42.59h1.04a.93.93,0,0,0,.21.23l1.28,1.02a2.007,2.007,0,0,0,1.56.75h1.17l-.56,2.25-1.74.58a1.988,1.988,0,0,0-1.37,1.87l-.01.68A.9.9,0,0,0,35.6,29.75Zm.19,4.75a2.124,2.124,0,0,0,.21-.9v-.98a.9.9,0,0,0,.4-.37L37.17,31A1.958,1.958,0,0,0,38,29.4l.01-.67v-.01l1.74-.57a2.014,2.014,0,0,0,1.31-1.42l.56-2.25a1.982,1.982,0,0,0-.36-1.71A2,2,0,0,0,39.68,22H38.51a.771.771,0,0,0-.21-.23l-1.28-1.02A2.007,2.007,0,0,0,35.46,20H34.42l-2.15-2.17a1.985,1.985,0,0,0-2.47-.3l-3.84,2.34A2.023,2.023,0,0,0,25,21.58v2.01A1.983,1.983,0,0,0,25.59,25l1.59,1.59a1.992,1.992,0,0,0,.52.38l1.3.65v2.23a2.185,2.185,0,0,0,.1.63.774.774,0,0,0,.07.16l1.75,3.29A2.068,2.068,0,0,0,31.93,35,15.014,15.014,0,0,1,17.06,21.15l4.05,2.03a2.005,2.005,0,0,0,.89.21,2.039,2.039,0,0,0,1.06-.31,1.975,1.975,0,0,0,.94-1.7V19.54a2,2,0,0,0-.9-1.67L21,16.46V15.04a.358.358,0,0,1,.11-.04H25a.993.993,0,0,0,.3-.05l2.79-.89a.471.471,0,0,0,.15-.06,1.857,1.857,0,0,0,.7-.59l2.64-3.53,3.27-.82a1.922,1.922,0,0,0,1.19-.82l.94-1.4a1.93,1.93,0,0,0,.3-.86,15,15,0,0,1,6.36,4.58L41.82,9.35A1.978,1.978,0,0,0,40.7,9H37.54a2.011,2.011,0,0,0-1.67.89L34.39,12.1a2.029,2.029,0,0,0-.25,1.57l.74,3.01a2,2,0,0,0,1.47,1.46l3.1.75a1.9,1.9,0,0,0,1.13-.03l2.15-.69L44,19.44v3.23a2.011,2.011,0,0,0,.4,1.2l1.44,1.91A15.068,15.068,0,0,1,35.79,34.5ZM46,22.67V19.44a2.033,2.033,0,0,0-.59-1.42l-1.26-1.25a2,2,0,0,0-2.04-.51l-2.15.7-3.14-.76-.75-3.01L37.54,11H40.7l2.57,1.71a2.014,2.014,0,0,0,.72.31l1.41.28A14.808,14.808,0,0,1,47,20a14.55,14.55,0,0,1-.42,3.45Z"/><path d="M22.96,60.72l-1.92.56-2.38-8.14a1.027,1.027,0,0,1,0-.55l.84-2.94a8.929,8.929,0,0,0,.04-4.81l-.33-1.26a8.982,8.982,0,0,0-1.49-3.06l-2.07-2.77a1.085,1.085,0,0,1-.17-.34l-1.81-6.76a2,2,0,0,0-2.45-1.42,2.012,2.012,0,0,0-1.41,2.45l2.59,9.66-1.94.52L7.74,31.71a5.164,5.164,0,0,1,0-2.59l3.19-11.9a2,2,0,0,0-1.41-2.45,2,2,0,0,0-2.45,1.41L2.99,31.39a14.938,14.938,0,0,0,.52,9.34L8.19,52.71a1.179,1.179,0,0,1,.06.27L9,60.91l-2,.18-.73-7.78L1.65,41.46a16.848,16.848,0,0,1-.59-10.59L5.14,15.66a4,4,0,0,1,7.73,2.08l-2.61,9.73a3.336,3.336,0,0,1,.44-.17,4,4,0,0,1,4.9,2.83l1.76,6.58,1.96,2.61a11.023,11.023,0,0,1,1.82,3.74l.34,1.26a11.173,11.173,0,0,1-.05,5.88l-.76,2.66Z"/><path d="M62.35,41.46,57.73,53.31,57,61.09l-2-.18.75-7.93a1.179,1.179,0,0,1,.06-.27l4.68-11.98a14.938,14.938,0,0,0,.52-9.34L56.93,16.18a2,2,0,0,0-2.45-1.41,2,2,0,0,0-1.41,2.45l3.19,11.9a5.164,5.164,0,0,1,0,2.59L53.54,41.86l-1.94-.52,2.59-9.66a2.012,2.012,0,0,0-1.41-2.45,2.007,2.007,0,0,0-2.45,1.42l-1.81,6.76a1.085,1.085,0,0,1-.17.34l-2.07,2.77a8.982,8.982,0,0,0-1.49,3.06l-.33,1.26a8.929,8.929,0,0,0,.04,4.81l.84,2.94a1.027,1.027,0,0,1,0,.55l-2.38,8.14-1.92-.56,2.29-7.86-.76-2.66a11.173,11.173,0,0,1-.05-5.88l.34-1.26a11.023,11.023,0,0,1,1.82-3.74l1.96-2.61,1.76-6.58a4.007,4.007,0,0,1,4.9-2.83,3.336,3.336,0,0,1,.44.17l-2.61-9.73a4,4,0,1,1,7.73-2.08l4.08,15.21A16.848,16.848,0,0,1,62.35,41.46Z"/></g></svg>
