<svg id="Layer_1" enable-background="new 0 0 512.001 512.001" height="512" viewBox="0 0 512.001 512.001" width="512" xmlns="http://www.w3.org/2000/svg"><g><g><path d="m400.825 389.02c0-13.513-8.266-25.132-20.006-30.067 2.379-4.523 3.727-9.671 3.727-15.126 0-17.973-14.623-32.596-32.598-32.596h-43.352v-55.37c55.959-14.501 97.405-65.431 97.405-125.861 0-71.682-58.317-130-130-130-17.912 0-35.276 3.586-51.61 10.659-5.068 2.194-7.397 8.082-5.203 13.15s8.085 7.399 13.15 5.203c13.81-5.98 28.501-9.012 43.663-9.012 60.654 0 110 49.346 110 110s-49.346 110-110 110-110.001-49.346-110.001-110c0-15.167 3.033-29.858 9.015-43.668 2.195-5.068-.133-10.956-5.201-13.151-5.065-2.195-10.956.133-13.15 5.202-7.076 16.333-10.664 33.7-10.664 51.617 0 60.43 41.446 111.359 97.404 125.861v45.191h-1.658c-29.281 0-57.09 12.161-77.019 33.523h-48.727c-2.653 0-5.197 1.054-7.073 2.931-1.875 1.876-2.929 4.421-2.927 7.075l.07 123.902c.003 5.521 4.479 9.994 10 9.994h48.709c19.982 21.363 47.772 33.523 76.967 33.523l102.5.001c17.974 0 32.597-14.623 32.597-32.597 0-5.581-1.409-10.837-3.891-15.435 11.361-5.098 19.293-16.519 19.293-29.757 0-6.774-2.077-13.072-5.627-18.291 8.572-5.877 14.207-15.744 14.207-26.901zm-124.824-129.02c4.249 0 8.45-.212 12.596-.612v51.843h-25.192v-.179-51.664c4.145.401 8.346.612 12.596.612zm92.227 141.618h-8.577c-5.522 0-10 4.477-10 10s4.478 10 10 10c6.944 0 12.594 5.65 12.594 12.595s-5.649 12.596-12.594 12.596h-15.405c-5.522 0-10 4.477-10 10 0 5.522 4.477 10 10 10 6.946 0 12.597 5.651 12.597 12.597s-5.65 12.597-12.597 12.597l-102.5-.003c-24.902 0-48.559-10.945-64.904-30.028-1.899-2.218-4.674-3.495-7.595-3.495h-43.182l-.059-103.902h43.196c2.927 0 5.706-1.282 7.606-3.508 16.281-19.075 39.95-30.016 64.937-30.016h1.658v.179c0 5.523 4.478 10 10 10h98.544c6.946 0 12.598 5.65 12.598 12.596s-5.651 12.597-12.598 12.597c-5.522 0-10 4.477-10 10s4.478 10 10 10h16.28c6.946 0 12.597 5.651 12.597 12.596.001 6.947-5.649 12.599-12.596 12.599z"/><path d="m243.334 175.618c5.849 5.848 13.53 8.772 21.212 8.772s15.363-2.924 21.212-8.772l48.812-48.812c11.696-11.696 11.696-30.728 0-42.424-11.697-11.695-30.727-11.695-42.424 0l-27.6 27.6-4.69-4.69c-11.697-11.695-30.727-11.695-42.424 0-5.666 5.666-8.786 13.199-8.786 21.212s3.12 15.546 8.786 21.212zm-11.76-54.183c1.949-1.949 4.509-2.923 7.069-2.923s5.121.975 7.069 2.923l11.762 11.761c3.906 3.905 10.236 3.905 14.143 0l34.671-34.671c3.898-3.898 10.24-3.898 14.139 0 1.889 1.888 2.929 4.399 2.929 7.069s-1.04 5.181-2.929 7.069l-48.812 48.812c-3.898 3.898-10.24 3.898-14.139 0l-25.902-25.902c-1.889-1.888-2.929-4.398-2.929-7.069s1.04-5.181 2.929-7.069z"/><path d="m191.148 55.143c2.561 0 5.122-.977 7.075-2.93 3.905-3.905 3.905-10.237 0-14.142-3.906-3.905-10.236-3.905-14.143 0l-.005.005c-3.905 3.905-3.902 10.234.003 14.139 1.953 1.952 4.512 2.928 7.07 2.928z"/></g></g></svg>